<svg xmlns="http://www.w3.org/2000/svg" xmlns:xlink="http://www.w3.org/1999/xlink" width="800" zoomAndPan="magnify" viewBox="0 0 600 599.999999" height="800" preserveAspectRatio="xMidYMid meet" version="1.0"><defs><clipPath id="887bbcdca5"><path d="M 0 67 L 198 67 L 198 533 L 0 533 Z M 0 67 " clip-rule="nonzero"/></clipPath><clipPath id="645ad80af7"><path d="M 187.15625 67 L 370.90625 67 L 370.90625 533 L 187.15625 533 Z M 187.15625 67 " clip-rule="nonzero"/></clipPath><clipPath id="75358761bc"><path d="M 368.5625 67 L 600 67 L 600 533 L 368.5625 533 Z M 368.5625 67 " clip-rule="nonzero"/></clipPath><clipPath id="9f116d91b4"><path d="M 187.15625 67 L 280.90625 67 L 280.90625 533 L 187.15625 533 Z M 187.15625 67 " clip-rule="nonzero"/></clipPath><clipPath id="0c14bbec04"><path d="M 115.65625 67 L 198.15625 67 L 198.15625 533 L 115.65625 533 Z M 115.65625 67 " clip-rule="nonzero"/></clipPath><clipPath id="4448a99367"><path d="M 368.5625 67 L 457.8125 67 L 457.8125 533 L 368.5625 533 Z M 368.5625 67 " clip-rule="nonzero"/></clipPath></defs><g clip-path="url(#887bbcdca5)"><path fill="#004aad" d="M 597.640625 88.835938 C 590.609375 92.679688 566.933594 99.566406 532.015625 84.660156 C 496.769531 69.628906 460.496094 91.859375 447.128906 102.734375 L 409.832031 69.226562 C 408.4375 67.960938 406.625 67.285156 404.738281 67.300781 L 292.367188 68.914062 C 290.207031 68.949219 288.15625 69.921875 286.78125 71.550781 L 204.511719 168.925781 C 203.558594 170.0625 202.28125 170.886719 200.851562 171.289062 L 112.761719 196.210938 C 111.058594 196.703125 109.574219 197.785156 108.585938 199.265625 L 71.304688 255.570312 C 66.652344 255.535156 62.679688 254.691406 59.292969 253.246094 C 54.183594 251.03125 50.300781 247.496094 47.554688 242.957031 C 44.828125 238.414062 43.289062 232.832031 43.289062 226.824219 C 43.304688 218.804688 46 210.105469 52.039062 202.25 C 58.066406 194.414062 67.441406 187.367188 81.136719 182.878906 C 99.648438 176.820312 113.105469 170.082031 122.957031 163.304688 C 144.144531 160.980469 148.574219 142.742188 148.628906 128.003906 C 148.71875 127.070312 148.773438 126.207031 148.773438 125.53125 C 148.773438 124.597656 148.703125 123.9375 148.664062 123.625 L 148.519531 123.644531 C 148.078125 115.296875 146.523438 108.941406 146.523438 108.941406 C 146.523438 108.941406 145.773438 115.660156 132.480469 121.574219 C 113.234375 127.085938 107.816406 142.011719 109.902344 152.980469 C 101.828125 157.921875 90.96875 163.066406 76.230469 167.882812 C 59.878906 173.210938 47.609375 182.09375 39.535156 192.640625 C 31.421875 203.167969 27.503906 215.273438 27.503906 226.824219 C 27.503906 238.363281 31.421875 249.476562 39.039062 257.808594 C 42.847656 261.964844 47.589844 265.386719 53.066406 267.75 C 57.386719 269.597656 62.238281 270.550781 67.328125 270.972656 L 66.285156 355.84375 C 66.285156 356.300781 66.230469 356.757812 66.140625 357.214844 L 52.515625 425.347656 C 52.332031 426.226562 52.023438 427.050781 51.546875 427.804688 L 1.105469 509.980469 C -0.0507812 511.847656 -0.304688 514.136719 0.390625 516.222656 C 1.066406 518.308594 2.660156 519.976562 4.695312 520.800781 L 33.203125 532.171875 C 36.023438 533.289062 39.246094 532.589844 41.351562 530.414062 L 101.28125 467.917969 C 101.335938 467.882812 101.375 467.84375 101.410156 467.808594 L 167.089844 402.109375 L 324.90625 315.316406 L 348.527344 347.527344 C 349.84375 349.320312 350.285156 351.589844 349.753906 353.75 C 349.203125 355.894531 347.738281 357.707031 345.742188 358.660156 L 294.914062 383.066406 C 293.121094 383.910156 291.726562 385.464844 291.085938 387.371094 C 290.425781 389.238281 290.574219 391.324219 291.472656 393.121094 L 298.152344 406.449219 C 299.894531 409.929688 304.03125 411.503906 307.640625 410.019531 L 410.65625 367.871094 C 414.226562 366.421875 416.09375 362.46875 414.957031 358.789062 L 391.792969 283.511719 C 391.097656 281.1875 391.539062 278.660156 393.019531 276.757812 L 399.410156 268.496094 C 400.730469 266.796875 402.707031 265.75 404.832031 265.605469 C 406.972656 265.476562 409.0625 266.265625 410.582031 267.78125 L 443.007812 300.082031 C 445.039062 302.117188 448.042969 302.773438 450.753906 301.824219 L 487.703125 288.75 C 490.304688 287.832031 492.191406 285.5625 492.59375 282.835938 L 508.488281 177.621094 C 539.960938 175.9375 541.90625 148.582031 541.90625 148.582031 L 498.507812 139.296875 C 505.8125 132.46875 515.867188 124.777344 526.359375 121.902344 C 541.851562 117.675781 560.234375 122.011719 579.277344 114.394531 C 598.320312 106.761719 603.664062 86.949219 597.640625 88.835938 Z M 597.640625 88.835938 " fill-opacity="1" fill-rule="nonzero"/></g><g clip-path="url(#645ad80af7)"><path fill="#ffa24d" d="M 597.640625 88.835938 C 590.609375 92.679688 566.933594 99.566406 532.015625 84.660156 C 496.769531 69.628906 460.496094 91.859375 447.128906 102.734375 L 409.832031 69.226562 C 408.4375 67.960938 406.625 67.285156 404.738281 67.300781 L 292.367188 68.914062 C 290.207031 68.949219 288.15625 69.921875 286.78125 71.550781 L 204.511719 168.925781 C 203.558594 170.0625 202.28125 170.886719 200.851562 171.289062 L 112.761719 196.210938 C 111.058594 196.703125 109.574219 197.785156 108.585938 199.265625 L 71.304688 255.570312 C 66.652344 255.535156 62.679688 254.691406 59.292969 253.246094 C 54.183594 251.03125 50.300781 247.496094 47.554688 242.957031 C 44.828125 238.414062 43.289062 232.832031 43.289062 226.824219 C 43.304688 218.804688 46 210.105469 52.039062 202.25 C 58.066406 194.414062 67.441406 187.367188 81.136719 182.878906 C 99.648438 176.820312 113.105469 170.082031 122.957031 163.304688 C 144.144531 160.980469 148.574219 142.742188 148.628906 128.003906 C 148.71875 127.070312 148.773438 126.207031 148.773438 125.53125 C 148.773438 124.597656 148.703125 123.9375 148.664062 123.625 L 148.519531 123.644531 C 148.078125 115.296875 146.523438 108.941406 146.523438 108.941406 C 146.523438 108.941406 145.773438 115.660156 132.480469 121.574219 C 113.234375 127.085938 107.816406 142.011719 109.902344 152.980469 C 101.828125 157.921875 90.96875 163.066406 76.230469 167.882812 C 59.878906 173.210938 47.609375 182.09375 39.535156 192.640625 C 31.421875 203.167969 27.503906 215.273438 27.503906 226.824219 C 27.503906 238.363281 31.421875 249.476562 39.039062 257.808594 C 42.847656 261.964844 47.589844 265.386719 53.066406 267.75 C 57.386719 269.597656 62.238281 270.550781 67.328125 270.972656 L 66.285156 355.84375 C 66.285156 356.300781 66.230469 356.757812 66.140625 357.214844 L 52.515625 425.347656 C 52.332031 426.226562 52.023438 427.050781 51.546875 427.804688 L 1.105469 509.980469 C -0.0507812 511.847656 -0.304688 514.136719 0.390625 516.222656 C 1.066406 518.308594 2.660156 519.976562 4.695312 520.800781 L 33.203125 532.171875 C 36.023438 533.289062 39.246094 532.589844 41.351562 530.414062 L 101.28125 467.917969 C 101.335938 467.882812 101.375 467.84375 101.410156 467.808594 L 167.089844 402.109375 L 324.90625 315.316406 L 348.527344 347.527344 C 349.84375 349.320312 350.285156 351.589844 349.753906 353.75 C 349.203125 355.894531 347.738281 357.707031 345.742188 358.660156 L 294.914062 383.066406 C 293.121094 383.910156 291.726562 385.464844 291.085938 387.371094 C 290.425781 389.238281 290.574219 391.324219 291.472656 393.121094 L 298.152344 406.449219 C 299.894531 409.929688 304.03125 411.503906 307.640625 410.019531 L 410.65625 367.871094 C 414.226562 366.421875 416.09375 362.46875 414.957031 358.789062 L 391.792969 283.511719 C 391.097656 281.1875 391.539062 278.660156 393.019531 276.757812 L 399.410156 268.496094 C 400.730469 266.796875 402.707031 265.75 404.832031 265.605469 C 406.972656 265.476562 409.0625 266.265625 410.582031 267.78125 L 443.007812 300.082031 C 445.039062 302.117188 448.042969 302.773438 450.753906 301.824219 L 487.703125 288.75 C 490.304688 287.832031 492.191406 285.5625 492.59375 282.835938 L 508.488281 177.621094 C 539.960938 175.9375 541.90625 148.582031 541.90625 148.582031 L 498.507812 139.296875 C 505.8125 132.46875 515.867188 124.777344 526.359375 121.902344 C 541.851562 117.675781 560.234375 122.011719 579.277344 114.394531 C 598.320312 106.761719 603.664062 86.949219 597.640625 88.835938 Z M 597.640625 88.835938 " fill-opacity="1" fill-rule="nonzero"/></g><g clip-path="url(#75358761bc)"><path fill="#4ac813" d="M 597.640625 88.835938 C 590.609375 92.679688 566.933594 99.566406 532.015625 84.660156 C 496.769531 69.628906 460.496094 91.859375 447.128906 102.734375 L 409.832031 69.226562 C 408.4375 67.960938 406.625 67.285156 404.738281 67.300781 L 292.367188 68.914062 C 290.207031 68.949219 288.15625 69.921875 286.78125 71.550781 L 204.511719 168.925781 C 203.558594 170.0625 202.28125 170.886719 200.851562 171.289062 L 112.761719 196.210938 C 111.058594 196.703125 109.574219 197.785156 108.585938 199.265625 L 71.304688 255.570312 C 66.652344 255.535156 62.679688 254.691406 59.292969 253.246094 C 54.183594 251.03125 50.300781 247.496094 47.554688 242.957031 C 44.828125 238.414062 43.289062 232.832031 43.289062 226.824219 C 43.304688 218.804688 46 210.105469 52.039062 202.25 C 58.066406 194.414062 67.441406 187.367188 81.136719 182.878906 C 99.648438 176.820312 113.105469 170.082031 122.957031 163.304688 C 144.144531 160.980469 148.574219 142.742188 148.628906 128.003906 C 148.71875 127.070312 148.773438 126.207031 148.773438 125.53125 C 148.773438 124.597656 148.703125 123.9375 148.664062 123.625 L 148.519531 123.644531 C 148.078125 115.296875 146.523438 108.941406 146.523438 108.941406 C 146.523438 108.941406 145.773438 115.660156 132.480469 121.574219 C 113.234375 127.085938 107.816406 142.011719 109.902344 152.980469 C 101.828125 157.921875 90.96875 163.066406 76.230469 167.882812 C 59.878906 173.210938 47.609375 182.09375 39.535156 192.640625 C 31.421875 203.167969 27.503906 215.273438 27.503906 226.824219 C 27.503906 238.363281 31.421875 249.476562 39.039062 257.808594 C 42.847656 261.964844 47.589844 265.386719 53.066406 267.75 C 57.386719 269.597656 62.238281 270.550781 67.328125 270.972656 L 66.285156 355.84375 C 66.285156 356.300781 66.230469 356.757812 66.140625 357.214844 L 52.515625 425.347656 C 52.332031 426.226562 52.023438 427.050781 51.546875 427.804688 L 1.105469 509.980469 C -0.0507812 511.847656 -0.304688 514.136719 0.390625 516.222656 C 1.066406 518.308594 2.660156 519.976562 4.695312 520.800781 L 33.203125 532.171875 C 36.023438 533.289062 39.246094 532.589844 41.351562 530.414062 L 101.28125 467.917969 C 101.335938 467.882812 101.375 467.84375 101.410156 467.808594 L 167.089844 402.109375 L 324.90625 315.316406 L 348.527344 347.527344 C 349.84375 349.320312 350.285156 351.589844 349.753906 353.75 C 349.203125 355.894531 347.738281 357.707031 345.742188 358.660156 L 294.914062 383.066406 C 293.121094 383.910156 291.726562 385.464844 291.085938 387.371094 C 290.425781 389.238281 290.574219 391.324219 291.472656 393.121094 L 298.152344 406.449219 C 299.894531 409.929688 304.03125 411.503906 307.640625 410.019531 L 410.65625 367.871094 C 414.226562 366.421875 416.09375 362.46875 414.957031 358.789062 L 391.792969 283.511719 C 391.097656 281.1875 391.539062 278.660156 393.019531 276.757812 L 399.410156 268.496094 C 400.730469 266.796875 402.707031 265.75 404.832031 265.605469 C 406.972656 265.476562 409.0625 266.265625 410.582031 267.78125 L 443.007812 300.082031 C 445.039062 302.117188 448.042969 302.773438 450.753906 301.824219 L 487.703125 288.75 C 490.304688 287.832031 492.191406 285.5625 492.59375 282.835938 L 508.488281 177.621094 C 539.960938 175.9375 541.90625 148.582031 541.90625 148.582031 L 498.507812 139.296875 C 505.8125 132.46875 515.867188 124.777344 526.359375 121.902344 C 541.851562 117.675781 560.234375 122.011719 579.277344 114.394531 C 598.320312 106.761719 603.664062 86.949219 597.640625 88.835938 Z M 597.640625 88.835938 " fill-opacity="1" fill-rule="nonzero"/></g><g clip-path="url(#9f116d91b4)"><path fill="#ff3131" d="M 597.640625 88.835938 C 590.609375 92.679688 566.933594 99.566406 532.015625 84.660156 C 496.769531 69.628906 460.496094 91.859375 447.128906 102.734375 L 409.832031 69.226562 C 408.4375 67.960938 406.625 67.285156 404.738281 67.300781 L 292.367188 68.914062 C 290.207031 68.949219 288.15625 69.921875 286.78125 71.550781 L 204.511719 168.925781 C 203.558594 170.0625 202.28125 170.886719 200.851562 171.289062 L 112.761719 196.210938 C 111.058594 196.703125 109.574219 197.785156 108.585938 199.265625 L 71.304688 255.570312 C 66.652344 255.535156 62.679688 254.691406 59.292969 253.246094 C 54.183594 251.03125 50.300781 247.496094 47.554688 242.957031 C 44.828125 238.414062 43.289062 232.832031 43.289062 226.824219 C 43.304688 218.804688 46 210.105469 52.039062 202.25 C 58.066406 194.414062 67.441406 187.367188 81.136719 182.878906 C 99.648438 176.820312 113.105469 170.082031 122.957031 163.304688 C 144.144531 160.980469 148.574219 142.742188 148.628906 128.003906 C 148.71875 127.070312 148.773438 126.207031 148.773438 125.53125 C 148.773438 124.597656 148.703125 123.9375 148.664062 123.625 L 148.519531 123.644531 C 148.078125 115.296875 146.523438 108.941406 146.523438 108.941406 C 146.523438 108.941406 145.773438 115.660156 132.480469 121.574219 C 113.234375 127.085938 107.816406 142.011719 109.902344 152.980469 C 101.828125 157.921875 90.96875 163.066406 76.230469 167.882812 C 59.878906 173.210938 47.609375 182.09375 39.535156 192.640625 C 31.421875 203.167969 27.503906 215.273438 27.503906 226.824219 C 27.503906 238.363281 31.421875 249.476562 39.039062 257.808594 C 42.847656 261.964844 47.589844 265.386719 53.066406 267.75 C 57.386719 269.597656 62.238281 270.550781 67.328125 270.972656 L 66.285156 355.84375 C 66.285156 356.300781 66.230469 356.757812 66.140625 357.214844 L 52.515625 425.347656 C 52.332031 426.226562 52.023438 427.050781 51.546875 427.804688 L 1.105469 509.980469 C -0.0507812 511.847656 -0.304688 514.136719 0.390625 516.222656 C 1.066406 518.308594 2.660156 519.976562 4.695312 520.800781 L 33.203125 532.171875 C 36.023438 533.289062 39.246094 532.589844 41.351562 530.414062 L 101.28125 467.917969 C 101.335938 467.882812 101.375 467.84375 101.410156 467.808594 L 167.089844 402.109375 L 324.90625 315.316406 L 348.527344 347.527344 C 349.84375 349.320312 350.285156 351.589844 349.753906 353.75 C 349.203125 355.894531 347.738281 357.707031 345.742188 358.660156 L 294.914062 383.066406 C 293.121094 383.910156 291.726562 385.464844 291.085938 387.371094 C 290.425781 389.238281 290.574219 391.324219 291.472656 393.121094 L 298.152344 406.449219 C 299.894531 409.929688 304.03125 411.503906 307.640625 410.019531 L 410.65625 367.871094 C 414.226562 366.421875 416.09375 362.46875 414.957031 358.789062 L 391.792969 283.511719 C 391.097656 281.1875 391.539062 278.660156 393.019531 276.757812 L 399.410156 268.496094 C 400.730469 266.796875 402.707031 265.75 404.832031 265.605469 C 406.972656 265.476562 409.0625 266.265625 410.582031 267.78125 L 443.007812 300.082031 C 445.039062 302.117188 448.042969 302.773438 450.753906 301.824219 L 487.703125 288.75 C 490.304688 287.832031 492.191406 285.5625 492.59375 282.835938 L 508.488281 177.621094 C 539.960938 175.9375 541.90625 148.582031 541.90625 148.582031 L 498.507812 139.296875 C 505.8125 132.46875 515.867188 124.777344 526.359375 121.902344 C 541.851562 117.675781 560.234375 122.011719 579.277344 114.394531 C 598.320312 106.761719 603.664062 86.949219 597.640625 88.835938 Z M 597.640625 88.835938 " fill-opacity="1" fill-rule="nonzero"/></g><g clip-path="url(#0c14bbec04)"><path fill="#8c52ff" d="M 597.640625 88.835938 C 590.609375 92.679688 566.933594 99.566406 532.015625 84.660156 C 496.769531 69.628906 460.496094 91.859375 447.128906 102.734375 L 409.832031 69.226562 C 408.4375 67.960938 406.625 67.285156 404.738281 67.300781 L 292.367188 68.914062 C 290.207031 68.949219 288.15625 69.921875 286.78125 71.550781 L 204.511719 168.925781 C 203.558594 170.0625 202.28125 170.886719 200.851562 171.289062 L 112.761719 196.210938 C 111.058594 196.703125 109.574219 197.785156 108.585938 199.265625 L 71.304688 255.570312 C 66.652344 255.535156 62.679688 254.691406 59.292969 253.246094 C 54.183594 251.03125 50.300781 247.496094 47.554688 242.957031 C 44.828125 238.414062 43.289062 232.832031 43.289062 226.824219 C 43.304688 218.804688 46 210.105469 52.039062 202.25 C 58.066406 194.414062 67.441406 187.367188 81.136719 182.878906 C 99.648438 176.820312 113.105469 170.082031 122.957031 163.304688 C 144.144531 160.980469 148.574219 142.742188 148.628906 128.003906 C 148.71875 127.070312 148.773438 126.207031 148.773438 125.53125 C 148.773438 124.597656 148.703125 123.9375 148.664062 123.625 L 148.519531 123.644531 C 148.078125 115.296875 146.523438 108.941406 146.523438 108.941406 C 146.523438 108.941406 145.773438 115.660156 132.480469 121.574219 C 113.234375 127.085938 107.816406 142.011719 109.902344 152.980469 C 101.828125 157.921875 90.96875 163.066406 76.230469 167.882812 C 59.878906 173.210938 47.609375 182.09375 39.535156 192.640625 C 31.421875 203.167969 27.503906 215.273438 27.503906 226.824219 C 27.503906 238.363281 31.421875 249.476562 39.039062 257.808594 C 42.847656 261.964844 47.589844 265.386719 53.066406 267.75 C 57.386719 269.597656 62.238281 270.550781 67.328125 270.972656 L 66.285156 355.84375 C 66.285156 356.300781 66.230469 356.757812 66.140625 357.214844 L 52.515625 425.347656 C 52.332031 426.226562 52.023438 427.050781 51.546875 427.804688 L 1.105469 509.980469 C -0.0507812 511.847656 -0.304688 514.136719 0.390625 516.222656 C 1.066406 518.308594 2.660156 519.976562 4.695312 520.800781 L 33.203125 532.171875 C 36.023438 533.289062 39.246094 532.589844 41.351562 530.414062 L 101.28125 467.917969 C 101.335938 467.882812 101.375 467.84375 101.410156 467.808594 L 167.089844 402.109375 L 324.90625 315.316406 L 348.527344 347.527344 C 349.84375 349.320312 350.285156 351.589844 349.753906 353.75 C 349.203125 355.894531 347.738281 357.707031 345.742188 358.660156 L 294.914062 383.066406 C 293.121094 383.910156 291.726562 385.464844 291.085938 387.371094 C 290.425781 389.238281 290.574219 391.324219 291.472656 393.121094 L 298.152344 406.449219 C 299.894531 409.929688 304.03125 411.503906 307.640625 410.019531 L 410.65625 367.871094 C 414.226562 366.421875 416.09375 362.46875 414.957031 358.789062 L 391.792969 283.511719 C 391.097656 281.1875 391.539062 278.660156 393.019531 276.757812 L 399.410156 268.496094 C 400.730469 266.796875 402.707031 265.75 404.832031 265.605469 C 406.972656 265.476562 409.0625 266.265625 410.582031 267.78125 L 443.007812 300.082031 C 445.039062 302.117188 448.042969 302.773438 450.753906 301.824219 L 487.703125 288.75 C 490.304688 287.832031 492.191406 285.5625 492.59375 282.835938 L 508.488281 177.621094 C 539.960938 175.9375 541.90625 148.582031 541.90625 148.582031 L 498.507812 139.296875 C 505.8125 132.46875 515.867188 124.777344 526.359375 121.902344 C 541.851562 117.675781 560.234375 122.011719 579.277344 114.394531 C 598.320312 106.761719 603.664062 86.949219 597.640625 88.835938 Z M 597.640625 88.835938 " fill-opacity="1" fill-rule="nonzero"/></g><g clip-path="url(#4448a99367)"><path fill="#ffcc00" d="M 597.640625 88.835938 C 590.609375 92.679688 566.933594 99.566406 532.015625 84.660156 C 496.769531 69.628906 460.496094 91.859375 447.128906 102.734375 L 409.832031 69.226562 C 408.4375 67.960938 406.625 67.285156 404.738281 67.300781 L 292.367188 68.914062 C 290.207031 68.949219 288.15625 69.921875 286.78125 71.550781 L 204.511719 168.925781 C 203.558594 170.0625 202.28125 170.886719 200.851562 171.289062 L 112.761719 196.210938 C 111.058594 196.703125 109.574219 197.785156 108.585938 199.265625 L 71.304688 255.570312 C 66.652344 255.535156 62.679688 254.691406 59.292969 253.246094 C 54.183594 251.03125 50.300781 247.496094 47.554688 242.957031 C 44.828125 238.414062 43.289062 232.832031 43.289062 226.824219 C 43.304688 218.804688 46 210.105469 52.039062 202.25 C 58.066406 194.414062 67.441406 187.367188 81.136719 182.878906 C 99.648438 176.820312 113.105469 170.082031 122.957031 163.304688 C 144.144531 160.980469 148.574219 142.742188 148.628906 128.003906 C 148.71875 127.070312 148.773438 126.207031 148.773438 125.53125 C 148.773438 124.597656 148.703125 123.9375 148.664062 123.625 L 148.519531 123.644531 C 148.078125 115.296875 146.523438 108.941406 146.523438 108.941406 C 146.523438 108.941406 145.773438 115.660156 132.480469 121.574219 C 113.234375 127.085938 107.816406 142.011719 109.902344 152.980469 C 101.828125 157.921875 90.96875 163.066406 76.230469 167.882812 C 59.878906 173.210938 47.609375 182.09375 39.535156 192.640625 C 31.421875 203.167969 27.503906 215.273438 27.503906 226.824219 C 27.503906 238.363281 31.421875 249.476562 39.039062 257.808594 C 42.847656 261.964844 47.589844 265.386719 53.066406 267.75 C 57.386719 269.597656 62.238281 270.550781 67.328125 270.972656 L 66.285156 355.84375 C 66.285156 356.300781 66.230469 356.757812 66.140625 357.214844 L 52.515625 425.347656 C 52.332031 426.226562 52.023438 427.050781 51.546875 427.804688 L 1.105469 509.980469 C -0.0507812 511.847656 -0.304688 514.136719 0.390625 516.222656 C 1.066406 518.308594 2.660156 519.976562 4.695312 520.800781 L 33.203125 532.171875 C 36.023438 533.289062 39.246094 532.589844 41.351562 530.414062 L 101.28125 467.917969 C 101.335938 467.882812 101.375 467.84375 101.410156 467.808594 L 167.089844 402.109375 L 324.90625 315.316406 L 348.527344 347.527344 C 349.84375 349.320312 350.285156 351.589844 349.753906 353.75 C 349.203125 355.894531 347.738281 357.707031 345.742188 358.660156 L 294.914062 383.066406 C 293.121094 383.910156 291.726562 385.464844 291.085938 387.371094 C 290.425781 389.238281 290.574219 391.324219 291.472656 393.121094 L 298.152344 406.449219 C 299.894531 409.929688 304.03125 411.503906 307.640625 410.019531 L 410.65625 367.871094 C 414.226562 366.421875 416.09375 362.46875 414.957031 358.789062 L 391.792969 283.511719 C 391.097656 281.1875 391.539062 278.660156 393.019531 276.757812 L 399.410156 268.496094 C 400.730469 266.796875 402.707031 265.75 404.832031 265.605469 C 406.972656 265.476562 409.0625 266.265625 410.582031 267.78125 L 443.007812 300.082031 C 445.039062 302.117188 448.042969 302.773438 450.753906 301.824219 L 487.703125 288.75 C 490.304688 287.832031 492.191406 285.5625 492.59375 282.835938 L 508.488281 177.621094 C 539.960938 175.9375 541.90625 148.582031 541.90625 148.582031 L 498.507812 139.296875 C 505.8125 132.46875 515.867188 124.777344 526.359375 121.902344 C 541.851562 117.675781 560.234375 122.011719 579.277344 114.394531 C 598.320312 106.761719 603.664062 86.949219 597.640625 88.835938 Z M 597.640625 88.835938 " fill-opacity="1" fill-rule="nonzero"/></g></svg>